# xmcd
#
# Track frame offsets:
#	150
#	16722
#	33541
#	48243
#	73412
#
# Disc length: 4440 seconds
#
# Revision: 1
# Processed by: cddbd v1.5.2PL0 Copyright (c) Steve Scherf et al.
# Submitted via: audiograbber 1.83.01
#
DISCID=3c115605
DTITLE=Eko Fresh - König von Deutschland (EP)
DYEAR=2003
DGENRE=Rap
TTITLE0=Eko Fresh feat. Valezka - König von Deutschland
TTITLE1=Eko Fresh feat. Valezka - Wie du es willst
TTITLE2=Eko Fresh - Heat
TTITLE3=Eko Fresh feat. Kool Savas and Valezka - König von Deutschland RMX
TTITLE4=Eko Fresh - COPY CONTROL
EXTD=
EXTT0=
EXTT1=
EXTT2=
EXTT3=
EXTT4=
PLAYORDER=
